# xmcd
#
# Track frame offsets: 
#        300
#        14211
#        35319
#        55415
#        76126
#        92001
#        105387
#        122710
#        143681
#        162055
#        178767
#
# Disc length: 2554 seconds
#
# Revision: 0
# Processed by: cddbd v1.5.2PL0 Copyright (c) Steve Scherf et al.
# Submitted via: ExactAudioCopy v1.0b1
#
DISCID=8809f60b
DTITLE=Debbie Davies - After The Fall
DYEAR=2012
DGENRE=Contemporary Blues
TTITLE0=Don't Put The Blame On Me
TTITLE1=The Fall
TTITLE2=True Blue Fool
TTITLE3=Done Sold Everything
TTITLE4=Little Broken Wing
TTITLE5=All of My Forgiveness
TTITLE6=Goin' To A Gaggle
TTITLE7=I'll Feel Much Better When You Cry
TTITLE8=Down Home Girl
TTITLE9=R.R. Boogie
TTITLE10=Google Me Baby
EXTD=
EXTT0=
EXTT1=
EXTT2=
EXTT3=
EXTT4=
EXTT5=
EXTT6=
EXTT7=
EXTT8=
EXTT9=
EXTT10=
PLAYORDER=
